<svg width="260" height="260" viewBox="0 0 260 260" fill="none" xmlns="http://www.w3.org/2000/svg">
<g clip-path="url(#clip0_18_2)">
<rect width="260" height="260" fill="#0083FC"/>
<path d="M100.996 164H68.3789V92.0273H103.34C112.161 92.1576 118.411 94.7129 122.09 99.6934C124.303 102.753 125.41 106.415 125.41 110.68C125.41 115.074 124.303 118.606 122.09 121.275C120.853 122.773 119.03 124.14 116.621 125.377C120.299 126.712 123.066 128.827 124.922 131.725C126.81 134.622 127.754 138.137 127.754 142.271C127.754 146.536 126.68 150.361 124.531 153.746C123.164 155.992 121.455 157.88 119.404 159.41C117.093 161.168 114.359 162.372 111.201 163.023C108.076 163.674 104.674 164 100.996 164ZM100.654 132.311H82.7344V151.5H100.41C103.568 151.5 106.025 151.077 107.783 150.23C110.973 148.668 112.568 145.673 112.568 141.246C112.568 137.503 111.022 134.931 107.93 133.531C106.204 132.75 103.779 132.343 100.654 132.311ZM108.125 118.59C110.078 117.418 111.055 115.318 111.055 112.291C111.055 108.938 109.753 106.725 107.148 105.65C104.902 104.902 102.038 104.527 98.5547 104.527H82.7344V120.396H100.41C103.568 120.396 106.139 119.794 108.125 118.59ZM198.506 92.0273L174.434 136.949V164H159.395V136.949L134.492 92.0273H152.217L167.158 123.375L181.465 92.0273H198.506Z" fill="white"/>
</g>
<defs>
<clipPath id="clip0_18_2">
<rect width="260" height="260" fill="white"/>
</clipPath>
</defs>
</svg>
